- 
http://www.Speed.Cd      fast  and The Hottest Private Tracker on the net

(((--Submit for invite!!--)))

Please Seed back to make the speed Faster!!!

------------------nfo--------------------------
-                                                                
 @@@@@@@   @@@  @@@  @@@  @@@@@@@@  @@@@@@@   @@@@@@    @@@  @@@@@@@  @@@ @@@ 
 @@@@@@@@  @@@  @@@  @@@  @@@@@@@@  @@@@@@@@  @@@@@@@   @@@  @@@@@@@  @@@ @@@ 
 @@!  @@@  @@!  @@!  @@@  @@!       @@!  @@@  !@@       @@!    @@!    @@! !@@ 
 !@!  @!@  !@!  !@!  @!@  !@!       !@!  @!@  !@!       !@!    !@!    !@! @!! 
 @!@  !@!  !!@  @!@  !@!  @!!!:!    @!@!!@!   !!@@!!    !!@    @!!     !@!@!  
 !@!  !!!  !!!  !@!  !!!  !!!!!:    !!@!@!     !!@!!!   !!!    !!!      @!!!  
 !!:  !!!  !!:  :!:  !!:  !!:       !!: :!!        !:!  !!:    !!:      !!:   
 :!:  !:!  :!:   ::!!:!   :!:       :!:  !:!      !:!   :!:    :!:      :!:   
 :::: ::   ::    ::::     :: ::::   ::   :::  :::: ::    ::     ::       ::   
 :: :  :   :       :      : :: ::    :   : :  :: : :    :       :        :       


   
General

Complete name                    : IMAX.Blue.Planet.1990.720p.BRRip.Xvid.AC3.DiVERSiTY
Format                           : AVI
Format/Info                      : Audio Video Interleave
File size                        : 1.25 GiB
Duration                         : 42mn 26s
Overall bit rate                 : 4 205 Kbps
Video-Source                     : 720p.BluRay.x264-HiGHTiMES   
Encoded by                       : Hibees
      
http://www.imdb.com/title/tt0099158/
 
   
Video

Format                           : MPEG-4 Visual
Format profile                   : Streaming Video@L1
Format settings, BVOP            : Yes
Format settings, QPel            : No
Format settings, GMC             : No warppoints
Format settings, Matrix          : Default
Codec ID                         : XVID
Codec ID/Hint                    : XviD
Duration                         : 42mn 26s
Bit rate                         : 3 750 Kbps
Width                            : 1 280 pixels
Height                           : 720 pixels
Display aspect ratio             : 16/9
Frame rate                       : 23.976 fps
Resolution                       : 24 bits
Colorimetry                      : 4:2:0
Scan type                        : Progressive
Bits/(Pixel*Frame)               : 0.170
Stream size                      : 1.11 GiB (89%)
Writing library                  : XviD 1.2.1 (UTC 2008-12-04)



Audio

Format                           : AC-3
Format/Info                      : Audio Coding 3
Codec ID                         : 2000
Duration                         : 42mn 26s
Bit rate mode                    : Constant
Bit rate                         : 448 Kbps
Channel(s)                       : 6 channels
Channel positions                : Front: L C R, Surround: L R, LFE
Sampling rate                    : 48.0 KHz
Stream size                      : 136 MiB (11%)
Alignment                        : Aligned on interleaves
Interleave, duration             : 64 ms (1.53 video frames)
Interleave, preload duration     : 192 ms
Title                            : hightimes-bp-x264 - [2] English_new




Plot:

On several Shuttle missions, Earth has been portrayed from places that 
nobody else could reach. We also get shown the different locations and 
the environmental problems mankind created there because of our wish to 
exploit our planet for our own benefit. 


Greets:

To Everyone who makes p2p possible...... Thanks.